<mxfile host="app.diagrams.net" modified="2023-12-03T10:27:51.365Z" agent="Mozilla/5.0 (Windows NT 10.0; Win64; x64) AppleWebKit/537.36 (KHTML, like Gecko) Chrome/119.0.0.0 Safari/537.36" etag="_W5M9CVZphK9BYC4po08" version="22.1.5" type="device">
  <diagram id="R2lEEEUBdFMjLlhIrx00" name="Page-1">
    <mxGraphModel dx="1467" dy="797" grid="1" gridSize="10" guides="1" tooltips="1" connect="1" arrows="1" fold="1" page="1" pageScale="1" pageWidth="850" pageHeight="1100" math="0" shadow="0" extFonts="Permanent Marker^https://fonts.googleapis.com/css?family=Permanent+Marker">
      <root>
        <mxCell id="0" />
        <mxCell id="1" parent="0" />
        <mxCell id="I6Y5Zdx-_vChhcfvR__d-14" value="User" style="rounded=1;whiteSpace=wrap;html=1;absoluteArcSize=1;arcSize=14;strokeWidth=2;" vertex="1" parent="1">
          <mxGeometry x="260" y="210" width="120" height="60" as="geometry" />
        </mxCell>
        <mxCell id="I6Y5Zdx-_vChhcfvR__d-15" value="" style="endArrow=none;html=1;rounded=0;" edge="1" parent="1" target="I6Y5Zdx-_vChhcfvR__d-14">
          <mxGeometry width="50" height="50" relative="1" as="geometry">
            <mxPoint x="320" y="320" as="sourcePoint" />
            <mxPoint x="500" y="430" as="targetPoint" />
          </mxGeometry>
        </mxCell>
        <mxCell id="I6Y5Zdx-_vChhcfvR__d-16" value="-UID&lt;br&gt;-Uname&lt;br&gt;-UPassword" style="shape=datastore;whiteSpace=wrap;html=1;" vertex="1" parent="1">
          <mxGeometry x="440" y="130" width="110" height="120" as="geometry" />
        </mxCell>
        <mxCell id="I6Y5Zdx-_vChhcfvR__d-19" value="" style="shape=singleArrow;direction=west;whiteSpace=wrap;html=1;" vertex="1" parent="1">
          <mxGeometry x="380" y="210" width="60" height="30" as="geometry" />
        </mxCell>
        <mxCell id="I6Y5Zdx-_vChhcfvR__d-20" value="Login" style="strokeWidth=2;html=1;shape=mxgraph.flowchart.decision;whiteSpace=wrap;" vertex="1" parent="1">
          <mxGeometry x="275" y="310" width="90" height="70" as="geometry" />
        </mxCell>
        <mxCell id="I6Y5Zdx-_vChhcfvR__d-25" value="" style="endArrow=none;html=1;rounded=0;entryX=0;entryY=0.5;entryDx=0;entryDy=0;entryPerimeter=0;" edge="1" parent="1" target="I6Y5Zdx-_vChhcfvR__d-20">
          <mxGeometry width="50" height="50" relative="1" as="geometry">
            <mxPoint x="110" y="345" as="sourcePoint" />
            <mxPoint x="500" y="330" as="targetPoint" />
          </mxGeometry>
        </mxCell>
        <mxCell id="I6Y5Zdx-_vChhcfvR__d-26" value="" style="endArrow=none;html=1;rounded=0;" edge="1" parent="1">
          <mxGeometry width="50" height="50" relative="1" as="geometry">
            <mxPoint x="360" y="344.5" as="sourcePoint" />
            <mxPoint x="1010" y="345" as="targetPoint" />
          </mxGeometry>
        </mxCell>
        <mxCell id="I6Y5Zdx-_vChhcfvR__d-27" value="Is a customer" style="text;html=1;align=center;verticalAlign=middle;resizable=0;points=[];autosize=1;strokeColor=none;fillColor=none;" vertex="1" parent="1">
          <mxGeometry x="160" y="308" width="100" height="30" as="geometry" />
        </mxCell>
        <mxCell id="I6Y5Zdx-_vChhcfvR__d-28" value="Is an employee" style="text;html=1;align=center;verticalAlign=middle;resizable=0;points=[];autosize=1;strokeColor=none;fillColor=none;" vertex="1" parent="1">
          <mxGeometry x="365" y="310" width="100" height="30" as="geometry" />
        </mxCell>
        <mxCell id="I6Y5Zdx-_vChhcfvR__d-54" value="" style="edgeStyle=orthogonalEdgeStyle;rounded=0;orthogonalLoop=1;jettySize=auto;html=1;" edge="1" parent="1" source="I6Y5Zdx-_vChhcfvR__d-35" target="I6Y5Zdx-_vChhcfvR__d-44">
          <mxGeometry relative="1" as="geometry" />
        </mxCell>
        <mxCell id="I6Y5Zdx-_vChhcfvR__d-35" value="Select Product View" style="rounded=1;whiteSpace=wrap;html=1;absoluteArcSize=1;arcSize=14;strokeWidth=2;" vertex="1" parent="1">
          <mxGeometry x="60" y="400" width="100" height="100" as="geometry" />
        </mxCell>
        <mxCell id="I6Y5Zdx-_vChhcfvR__d-36" value="Product CRUD" style="rounded=1;whiteSpace=wrap;html=1;absoluteArcSize=1;arcSize=14;strokeWidth=2;" vertex="1" parent="1">
          <mxGeometry x="490" y="400" width="100" height="100" as="geometry" />
        </mxCell>
        <mxCell id="I6Y5Zdx-_vChhcfvR__d-37" value="-PID(PK)&lt;br&gt;-PName&lt;br&gt;-PDesc&lt;br&gt;-PCost" style="shape=datastore;whiteSpace=wrap;html=1;" vertex="1" parent="1">
          <mxGeometry x="260" y="400" width="110" height="120" as="geometry" />
        </mxCell>
        <mxCell id="I6Y5Zdx-_vChhcfvR__d-39" value="" style="html=1;shadow=0;dashed=0;align=center;verticalAlign=middle;shape=mxgraph.arrows2.arrow;dy=0.6;dx=40;flipH=1;notch=0;" vertex="1" parent="1">
          <mxGeometry x="160" y="450" width="105" height="20" as="geometry" />
        </mxCell>
        <mxCell id="I6Y5Zdx-_vChhcfvR__d-42" value="" style="endArrow=none;html=1;rounded=0;" edge="1" parent="1">
          <mxGeometry relative="1" as="geometry">
            <mxPoint x="109.5" y="500" as="sourcePoint" />
            <mxPoint x="109.5" y="560" as="targetPoint" />
          </mxGeometry>
        </mxCell>
        <mxCell id="I6Y5Zdx-_vChhcfvR__d-44" value="Shopping Cart" style="rounded=1;whiteSpace=wrap;html=1;absoluteArcSize=1;arcSize=14;strokeWidth=2;" vertex="1" parent="1">
          <mxGeometry x="60" y="550" width="100" height="100" as="geometry" />
        </mxCell>
        <mxCell id="I6Y5Zdx-_vChhcfvR__d-45" value="Product Inventory&lt;br&gt;CRUD" style="rounded=1;whiteSpace=wrap;html=1;absoluteArcSize=1;arcSize=14;strokeWidth=2;" vertex="1" parent="1">
          <mxGeometry x="650" y="520" width="100" height="100" as="geometry" />
        </mxCell>
        <mxCell id="I6Y5Zdx-_vChhcfvR__d-51" value="" style="endArrow=classic;html=1;rounded=0;entryX=0.5;entryY=0;entryDx=0;entryDy=0;entryPerimeter=0;" edge="1" parent="1" target="I6Y5Zdx-_vChhcfvR__d-35">
          <mxGeometry width="50" height="50" relative="1" as="geometry">
            <mxPoint x="110" y="340" as="sourcePoint" />
            <mxPoint x="110" y="350" as="targetPoint" />
          </mxGeometry>
        </mxCell>
        <mxCell id="I6Y5Zdx-_vChhcfvR__d-52" value="" style="endArrow=classic;html=1;rounded=0;entryX=0.5;entryY=0;entryDx=0;entryDy=0;entryPerimeter=0;" edge="1" parent="1">
          <mxGeometry width="50" height="50" relative="1" as="geometry">
            <mxPoint x="539.5" y="340" as="sourcePoint" />
            <mxPoint x="539.5" y="400" as="targetPoint" />
          </mxGeometry>
        </mxCell>
        <mxCell id="I6Y5Zdx-_vChhcfvR__d-53" value="" style="endArrow=classic;html=1;rounded=0;" edge="1" parent="1">
          <mxGeometry width="50" height="50" relative="1" as="geometry">
            <mxPoint x="710" y="338" as="sourcePoint" />
            <mxPoint x="710" y="510" as="targetPoint" />
          </mxGeometry>
        </mxCell>
        <mxCell id="I6Y5Zdx-_vChhcfvR__d-55" value="-PID(FK)&lt;br&gt;-PQty&lt;br&gt;-PMin&lt;br&gt;-PMax&lt;br&gt;-TotalPrice" style="shape=datastore;whiteSpace=wrap;html=1;" vertex="1" parent="1">
          <mxGeometry x="480" y="520" width="110" height="120" as="geometry" />
        </mxCell>
        <mxCell id="I6Y5Zdx-_vChhcfvR__d-56" value="" style="shape=flexArrow;endArrow=classic;startArrow=classic;html=1;rounded=0;exitX=1;exitY=0.5;exitDx=0;exitDy=0;entryX=0.01;entryY=0.59;entryDx=0;entryDy=0;entryPerimeter=0;" edge="1" parent="1" source="I6Y5Zdx-_vChhcfvR__d-37" target="I6Y5Zdx-_vChhcfvR__d-36">
          <mxGeometry width="100" height="100" relative="1" as="geometry">
            <mxPoint x="430" y="500" as="sourcePoint" />
            <mxPoint x="530" y="400" as="targetPoint" />
          </mxGeometry>
        </mxCell>
        <mxCell id="I6Y5Zdx-_vChhcfvR__d-57" value="" style="shape=flexArrow;endArrow=classic;startArrow=classic;html=1;rounded=0;exitX=1;exitY=0.5;exitDx=0;exitDy=0;" edge="1" parent="1" source="I6Y5Zdx-_vChhcfvR__d-55">
          <mxGeometry width="100" height="100" relative="1" as="geometry">
            <mxPoint x="610" y="580" as="sourcePoint" />
            <mxPoint x="650" y="580" as="targetPoint" />
          </mxGeometry>
        </mxCell>
        <mxCell id="I6Y5Zdx-_vChhcfvR__d-59" value="" style="html=1;shadow=0;dashed=0;align=center;verticalAlign=middle;shape=mxgraph.arrows2.arrow;dy=0.6;dx=40;flipH=1;notch=0;" vertex="1" parent="1">
          <mxGeometry x="160" y="580" width="320" height="20" as="geometry" />
        </mxCell>
        <mxCell id="I6Y5Zdx-_vChhcfvR__d-62" value="" style="endArrow=classic;html=1;rounded=0;exitX=0.5;exitY=1;exitDx=0;exitDy=0;" edge="1" parent="1" source="I6Y5Zdx-_vChhcfvR__d-44">
          <mxGeometry width="50" height="50" relative="1" as="geometry">
            <mxPoint x="85" y="740" as="sourcePoint" />
            <mxPoint x="110" y="700" as="targetPoint" />
          </mxGeometry>
        </mxCell>
        <mxCell id="I6Y5Zdx-_vChhcfvR__d-63" value="Sales Operation" style="rounded=1;whiteSpace=wrap;html=1;absoluteArcSize=1;arcSize=14;strokeWidth=2;" vertex="1" parent="1">
          <mxGeometry x="60" y="700" width="100" height="100" as="geometry" />
        </mxCell>
        <mxCell id="I6Y5Zdx-_vChhcfvR__d-64" value="" style="endArrow=classic;html=1;rounded=0;" edge="1" parent="1">
          <mxGeometry width="50" height="50" relative="1" as="geometry">
            <mxPoint x="860" y="338" as="sourcePoint" />
            <mxPoint x="860" y="670" as="targetPoint" />
          </mxGeometry>
        </mxCell>
        <mxCell id="I6Y5Zdx-_vChhcfvR__d-65" value="CRUD realated to Sales and Sales Report" style="rounded=1;whiteSpace=wrap;html=1;absoluteArcSize=1;arcSize=14;strokeWidth=2;" vertex="1" parent="1">
          <mxGeometry x="810" y="670" width="100" height="100" as="geometry" />
        </mxCell>
        <mxCell id="I6Y5Zdx-_vChhcfvR__d-66" value="-SID(PK)&lt;br&gt;-PID(FK)&lt;br&gt;-PQty(FK)&lt;br&gt;-TotalPrice(FK)&lt;br&gt;-SalesDate" style="shape=datastore;whiteSpace=wrap;html=1;" vertex="1" parent="1">
          <mxGeometry x="620" y="660" width="110" height="120" as="geometry" />
        </mxCell>
        <mxCell id="I6Y5Zdx-_vChhcfvR__d-67" value="" style="shape=flexArrow;endArrow=classic;startArrow=classic;html=1;rounded=0;exitX=1;exitY=0.5;exitDx=0;exitDy=0;entryX=0;entryY=0.5;entryDx=0;entryDy=0;exitPerimeter=0;" edge="1" parent="1" source="I6Y5Zdx-_vChhcfvR__d-66" target="I6Y5Zdx-_vChhcfvR__d-65">
          <mxGeometry width="100" height="100" relative="1" as="geometry">
            <mxPoint x="740" y="719.5" as="sourcePoint" />
            <mxPoint x="800" y="719.5" as="targetPoint" />
          </mxGeometry>
        </mxCell>
        <mxCell id="I6Y5Zdx-_vChhcfvR__d-68" value="" style="html=1;shadow=0;dashed=0;align=center;verticalAlign=middle;shape=mxgraph.arrows2.arrow;dy=0.6;dx=40;flipH=1;notch=0;" vertex="1" parent="1">
          <mxGeometry x="160" y="710" width="460" height="20" as="geometry" />
        </mxCell>
        <mxCell id="I6Y5Zdx-_vChhcfvR__d-69" value="" style="endArrow=classic;html=1;rounded=0;" edge="1" parent="1">
          <mxGeometry width="50" height="50" relative="1" as="geometry">
            <mxPoint x="1010" y="338" as="sourcePoint" />
            <mxPoint x="1010" y="850" as="targetPoint" />
          </mxGeometry>
        </mxCell>
        <mxCell id="I6Y5Zdx-_vChhcfvR__d-70" value="DispatchActivity Monitor" style="rounded=1;whiteSpace=wrap;html=1;absoluteArcSize=1;arcSize=14;strokeWidth=2;" vertex="1" parent="1">
          <mxGeometry x="960" y="850" width="100" height="100" as="geometry" />
        </mxCell>
        <mxCell id="I6Y5Zdx-_vChhcfvR__d-71" value="DispatchActivity Monitor" style="rounded=1;whiteSpace=wrap;html=1;absoluteArcSize=1;arcSize=14;strokeWidth=2;" vertex="1" parent="1">
          <mxGeometry x="60" y="870" width="100" height="100" as="geometry" />
        </mxCell>
        <mxCell id="I6Y5Zdx-_vChhcfvR__d-72" value="" style="endArrow=classic;html=1;rounded=0;entryX=0.5;entryY=0;entryDx=0;entryDy=0;" edge="1" parent="1" target="I6Y5Zdx-_vChhcfvR__d-71">
          <mxGeometry width="50" height="50" relative="1" as="geometry">
            <mxPoint x="109.57" y="790" as="sourcePoint" />
            <mxPoint x="109.57" y="850" as="targetPoint" />
          </mxGeometry>
        </mxCell>
        <mxCell id="I6Y5Zdx-_vChhcfvR__d-73" value="-DespID(PK)&lt;br&gt;-SID(FK)&lt;br&gt;-SalesDate(FK)&lt;br&gt;-ArrivalDate" style="shape=datastore;whiteSpace=wrap;html=1;" vertex="1" parent="1">
          <mxGeometry x="720" y="840" width="110" height="120" as="geometry" />
        </mxCell>
        <mxCell id="I6Y5Zdx-_vChhcfvR__d-74" value="" style="shape=flexArrow;endArrow=classic;startArrow=classic;html=1;rounded=0;entryX=0;entryY=0.5;entryDx=0;entryDy=0;exitX=1;exitY=0.412;exitDx=0;exitDy=0;exitPerimeter=0;" edge="1" parent="1" source="I6Y5Zdx-_vChhcfvR__d-73">
          <mxGeometry width="100" height="100" relative="1" as="geometry">
            <mxPoint x="840" y="890" as="sourcePoint" />
            <mxPoint x="960" y="890" as="targetPoint" />
          </mxGeometry>
        </mxCell>
        <mxCell id="I6Y5Zdx-_vChhcfvR__d-75" value="" style="html=1;shadow=0;dashed=0;align=center;verticalAlign=middle;shape=mxgraph.arrows2.arrow;dy=0.6;dx=40;flipH=1;notch=0;" vertex="1" parent="1">
          <mxGeometry x="160" y="880" width="560" height="20" as="geometry" />
        </mxCell>
        <mxCell id="I6Y5Zdx-_vChhcfvR__d-77" value="ProductDB" style="text;html=1;align=center;verticalAlign=middle;resizable=0;points=[];autosize=1;strokeColor=none;fillColor=none;" vertex="1" parent="1">
          <mxGeometry x="275" y="400" width="80" height="30" as="geometry" />
        </mxCell>
        <mxCell id="I6Y5Zdx-_vChhcfvR__d-78" value="UserDB" style="text;html=1;align=center;verticalAlign=middle;resizable=0;points=[];autosize=1;strokeColor=none;fillColor=none;" vertex="1" parent="1">
          <mxGeometry x="460" y="130" width="70" height="30" as="geometry" />
        </mxCell>
        <mxCell id="I6Y5Zdx-_vChhcfvR__d-79" value="CartSessionDB" style="text;html=1;align=center;verticalAlign=middle;resizable=0;points=[];autosize=1;strokeColor=none;fillColor=none;" vertex="1" parent="1">
          <mxGeometry x="480" y="518" width="110" height="30" as="geometry" />
        </mxCell>
        <mxCell id="I6Y5Zdx-_vChhcfvR__d-80" value="SalesDB" style="text;html=1;align=center;verticalAlign=middle;resizable=0;points=[];autosize=1;strokeColor=none;fillColor=none;" vertex="1" parent="1">
          <mxGeometry x="640" y="660" width="70" height="30" as="geometry" />
        </mxCell>
        <mxCell id="I6Y5Zdx-_vChhcfvR__d-81" value="DesptachDB" style="text;html=1;align=center;verticalAlign=middle;resizable=0;points=[];autosize=1;strokeColor=none;fillColor=none;" vertex="1" parent="1">
          <mxGeometry x="730" y="840" width="90" height="30" as="geometry" />
        </mxCell>
      </root>
    </mxGraphModel>
  </diagram>
</mxfile>
